<svg width="64" height="64" viewBox="0 0 64 64" xmlns="http://www.w3.org/2000/svg">
  <!-- Fondo del logo -->
  <defs>
    <linearGradient id="bgGradient" x1="0%" y1="0%" x2="100%" y2="100%">
      <stop offset="0%" style="stop-color:#3c8772;stop-opacity:1" />
      <stop offset="100%" style="stop-color:#2d6659;stop-opacity:1" />
    </linearGradient>
    <linearGradient id="iconGradient" x1="0%" y1="0%" x2="100%" y2="100%">
      <stop offset="0%" style="stop-color:#ffffff;stop-opacity:1" />
      <stop offset="100%" style="stop-color:#e0f2f1;stop-opacity:1" />
    </linearGradient>
  </defs>
  
  <!-- Fondo circular -->
  <circle cx="32" cy="32" r="30" fill="url(#bgGradient)" stroke="#1e4d42" stroke-width="2"/>
  
  <!-- Símbolo de base de datos (cilindros apilados) -->
  <g fill="url(#iconGradient)">
    <!-- Base de datos superior -->
    <ellipse cx="32" cy="18" rx="14" ry="4" opacity="0.9"/>
    <rect x="18" y="18" width="28" height="8" opacity="0.7"/>
    <ellipse cx="32" cy="26" rx="14" ry="4" opacity="0.9"/>
    
    <!-- Base de datos inferior -->
    <ellipse cx="32" cy="32" rx="14" ry="4" opacity="0.9"/>
    <rect x="18" y="32" width="28" height="8" opacity="0.7"/>
    <ellipse cx="32" cy="40" rx="14" ry="4" opacity="0.9"/>
  </g>
  
  <!-- Símbolo de construcción/query (engranajes) -->
  <g fill="#ffca28" stroke="#ff8f00" stroke-width="1">
    <!-- Engranaje pequeño -->
    <circle cx="44" cy="22" r="6" fill="#ffca28" opacity="0.9"/>
    <circle cx="44" cy="22" r="3" fill="#ff8f00"/>
    <!-- Dientes del engranaje -->
    <polygon points="44,16 46,18 44,20 42,18" fill="#ffca28"/>
    <polygon points="50,22 48,20 46,22 48,24" fill="#ffca28"/>
    <polygon points="44,28 42,26 44,24 46,26" fill="#ffca28"/>
    <polygon points="38,22 40,24 42,22 40,20" fill="#ffca28"/>
    
    <!-- Engranaje mediano -->
    <circle cx="20" cy="35" r="8" fill="#ffca28" opacity="0.8"/>
    <circle cx="20" cy="35" r="4" fill="#ff8f00"/>
    <!-- Dientes del engranaje -->
    <polygon points="20,27 23,29 20,31 17,29" fill="#ffca28"/>
    <polygon points="28,35 26,32 24,35 26,38" fill="#ffca28"/>
    <polygon points="20,43 17,41 20,39 23,41" fill="#ffca28"/>
    <polygon points="12,35 14,38 16,35 14,32" fill="#ffca28"/>
  </g>
  
  <!-- Símbolo de código/query (paréntesis angulares) -->
  <g fill="#4caf50" stroke="#388e3c" stroke-width="2" opacity="0.8">
    <path d="M 25 45 L 22 48 L 25 51" stroke-linecap="round"/>
    <path d="M 39 45 L 42 48 L 39 51" stroke-linecap="round"/>
  </g>
  
  <!-- Punto de conexión central -->
  <circle cx="32" cy="48" r="2" fill="#4caf50" opacity="0.9"/>
</svg>